<svg xmlns="http://www.w3.org/2000/svg" viewBox="0 0 231.4 246.65"><defs><style>.cls-1{fill:#f0c07c;}.cls-2{fill:#ee6826;}.cls-3{fill:#45a9b7;}.cls-4{fill:#394240;}.cls-5{fill:#d52e27;}</style></defs><title>Asset 7</title><g id="Layer_2" data-name="Layer 2"><g id="Layer_1-2" data-name="Layer 1"><rect class="cls-1" x="31.13" y="70.9" width="23.58" height="68.66" rx="11.79" ry="11.79" transform="translate(86.98 0.47) rotate(45)"/><rect class="cls-1" x="27.22" y="106.44" width="23.58" height="68.66" rx="11.79" ry="11.79" transform="translate(-69.09 42.52) rotate(-32.24)"/><rect class="cls-2" x="32.83" y="140.54" width="23.62" height="18.32" transform="translate(162.27 252.5) rotate(147.76)"/><path class="cls-3" d="M178.27,226.92a18,18,0,0,1,1.9-8.08c4.08-8.17-.88-18.05-9.95-19.1a14.71,14.71,0,0,0-1.88-.11,16.15,16.15,0,0,0-12.94,6.48,30.65,30.65,0,0,1,18.84,22.21,1.76,1.76,0,0,0,2.66,1.13l0,0a2.9,2.9,0,0,0,1.33-2.48Z"/><ellipse class="cls-4" cx="93.32" cy="46.13" rx="31.17" ry="35.23"/><circle class="cls-4" cx="80.84" cy="41.92" r="31.17"/><ellipse class="cls-1" cx="81.7" cy="49.29" rx="32.03" ry="34.51"/><circle class="cls-3" cx="54.9" cy="212.06" r="17.57"/><path class="cls-3" d="M115.94,223.1a28.19,28.19,0,0,0,.22-3.46,27,27,0,1,0-10,21A25.64,25.64,0,0,0,114.65,227,28.93,28.93,0,0,1,115.94,223.1Z"/><path class="cls-3" d="M136.92,204.92A15.72,15.72,0,1,0,116,223,30.68,30.68,0,0,1,136.92,204.92Z"/><path class="cls-3" d="M144.29,204a30.45,30.45,0,0,1,18.82,6.48,16.88,16.88,0,0,0,.14-2.15,15.72,15.72,0,0,0-31.35-1.71A30.5,30.5,0,0,1,144.29,204Z"/><rect class="cls-1" x="46.33" y="91.11" width="79.22" height="52.36"/><rect class="cls-4" x="46.33" y="143.47" width="79.22" height="23.62"/><path class="cls-5" d="M69.47,48.63h2a13,13,0,0,1,13,13v0a13,13,0,0,1-13,13h-2a0,0,0,0,1,0,0V48.63A0,0,0,0,1,69.47,48.63Z" transform="translate(138.65 -15.3) rotate(90)"/><rect class="cls-4" x="84.08" y="36.3" width="5.06" height="8.78" rx="2.53" ry="2.53"/><rect class="cls-4" x="64.82" y="36.3" width="5.06" height="8.78" rx="2.53" ry="2.53"/><rect class="cls-1" x="72.34" y="51.5" width="27.21" height="79.22" rx="13.6" ry="13.6" transform="translate(177.05 5.16) rotate(90)"/><rect class="cls-3" x="68.3" y="127.11" width="35.29" height="115.26" rx="15.49" ry="15.49" transform="translate(270.68 98.79) rotate(90)"/><path class="cls-2" d="M212,245.51h-18.5a.3.3,0,0,1-.17-.55l7.94-5.5a2.59,2.59,0,0,1,3,0l7.94,5.5A.3.3,0,0,1,212,245.51Z"/><path class="cls-2" d="M220.87,232.48c0-2.43,2-2.39,4.4-2.39v-1.67l-4.76,4.76a1,1,0,0,1-1.43,0l-.86-1a36.67,36.67,0,0,1-4.31-6c-1.49-2.54-6.12-5.23-8.29-5.23h-6.17c-4.49,0-14.13,7.25-14.13,11.74l4,7.64h35.91V238.6C222.84,238.6,220.87,234.9,220.87,232.48Z"/><path class="cls-2" d="M228.41,228.87a6.22,6.22,0,0,0-8.49,8.48,5.08,5.08,0,0,0,2.2,2.2,6.22,6.22,0,0,0,8.49-8.48A5,5,0,0,0,228.41,228.87Zm-1.12,8.18a3.5,3.5,0,0,1-4.86-4.86,2.36,2.36,0,0,1,.81-.82,3.5,3.5,0,0,1,4.87,4.86A2.3,2.3,0,0,1,227.29,237.05Z"/><path class="cls-2" d="M192.11,232.33H179.83c-.76,0-1.61-1.88-1.61-2.64v-1.61H174v1.61a10.65,10.65,0,0,0,10.66,10.65h7.43Z"/><rect class="cls-1" x="117.18" y="70.9" width="23.58" height="68.66" rx="11.79" ry="11.79" transform="translate(294.57 88.45) rotate(135)"/><rect class="cls-1" x="121.09" y="106.44" width="23.58" height="68.66" rx="11.79" ry="11.79" transform="translate(170.16 330.73) rotate(-147.76)"/><rect class="cls-2" x="115.44" y="140.54" width="23.62" height="18.32" transform="matrix(0.85, 0.53, -0.53, 0.85, 99.49, -44.8)"/><circle class="cls-4" cx="78.54" cy="12.47" r="12.47"/><circle class="cls-4" cx="95.75" cy="16.01" r="11.18"/><circle class="cls-4" cx="108.61" cy="24.94" r="7.49"/><circle class="cls-4" cx="113.73" cy="34.42" r="7.49"/><circle class="cls-4" cx="62.15" cy="18.39" r="7.49"/><circle class="cls-4" cx="69.25" cy="16.01" r="7.49"/><circle class="cls-4" cx="54.94" cy="24.49" r="5.28"/><circle class="cls-4" cx="116.1" cy="41.07" r="7.49"/><circle class="cls-4" cx="116.1" cy="48.57" r="7.49"/><path class="cls-3" d="M177.15,180.31,174,175.82A11.39,11.39,0,0,1,176.88,160l2-1.38-2,1.38A11.39,11.39,0,0,1,161,157.1l-2.25-3.24L161,157.1A11.39,11.39,0,0,1,158.16,173h0A11.39,11.39,0,0,1,174,175.82Z"/><path class="cls-3" d="M21.42,187.24l-3.65-.65a7.71,7.71,0,0,1-6.21-8.94l.29-1.61-.29,1.61a7.7,7.7,0,0,1-8.94,6.21L0,183.39l2.62.47a7.69,7.69,0,0,1,6.21,8.94h0a7.7,7.7,0,0,1,8.94-6.21Z"/></g></g></svg>