<?xml version="1.0" encoding="utf-8"?>
<!-- Generator: Adobe Illustrator 22.0.1, SVG Export Plug-In . SVG Version: 6.00 Build 0)  -->
<svg version="1.1" id="Layer_1" xmlns="http://www.w3.org/2000/svg" xmlns:xlink="http://www.w3.org/1999/xlink" x="0px" y="0px"
	 viewBox="0 0 100 100" style="enable-background:new 0 0 100 100;" xml:space="preserve">
<style type="text/css">
	.st0{fill:none;stroke:#EE6926;stroke-width:0.8732;stroke-miterlimit:10;}
	.st1{fill:#EE6926;}
	.st2{fill:#FFFFFF;}
</style>
<g>
	<circle class="st0" cx="50" cy="50" r="48.8"/>
	<circle class="st1" cx="50" cy="50" r="32.9"/>
	<path class="st2" d="M52.9,59.7h-5.6c-0.4,0-0.7,0.3-0.7,0.7s0.3,0.7,0.7,0.7h5.6c0.4,0,0.7-0.3,0.7-0.7S53.1,59.7,52.9,59.7z
		 M52.9,62.5h-5.6c-0.4,0-0.7,0.3-0.7,0.7c0,0.4,0.3,0.7,0.7,0.7h5.6c0.4,0,0.7-0.3,0.7-0.7C53.6,62.7,53.1,62.5,52.9,62.5z
		 M53.1,65.2H47l1.6,1.1c0.1,0.1,0.6,0.3,0.9,0.3h1.3c0.3,0,0.6-0.1,0.9-0.3L53.1,65.2z M58.3,46.1c0,4.9-4.4,8.3-4.4,12.2h-7.7
		c0-3.9-4.4-7.2-4.4-12.2c0-5.2,4.2-8,8.3-8S58.3,41,58.3,46.1z M63.9,45.1V47h-3.4c0-0.3,0-0.6,0-1c0-0.3,0-0.6,0-1L63.9,45.1
		L63.9,45.1z M49.1,36.1v-2.7H51v2.7c-0.3,0-0.7,0-1,0C49.7,36.1,49.4,36.1,49.1,36.1z M44,38l-1.4-2.7l1.7-0.9l1.4,2.7
		C45.1,37.3,44.6,37.5,44,38z M58.6,40.3l2.7-1.9l1.1,1.6l-2.9,2C59.3,41.4,59,40.8,58.6,40.3z M54.4,37l1.4-2.7l1.7,0.9l-1.4,2.7
		C55.6,37.5,55,37.3,54.4,37z M40.6,42l-2.9-2l1.1-1.6l2.7,1.9C41.1,40.8,40.8,41.4,40.6,42z M59.4,50.6l3.3,1.3L62,53.6l-3.3-1.3
		C59,51.7,59.3,51.1,59.4,50.6z M41.4,52.1l-3.3,1.4l-0.7-1.7l3.3-1.4C40.8,51,41.1,51.6,41.4,52.1z M39.7,47.1h-3.4v-1.9h3.4
		c0,0.3,0,0.6,0,1C39.7,46.4,39.7,46.7,39.7,47.1z"/>
</g>
</svg>
