<?xml version="1.0" encoding="utf-8"?>
<!-- Generator: Adobe Illustrator 22.0.1, SVG Export Plug-In . SVG Version: 6.00 Build 0)  -->
<svg version="1.1" id="Layer_1" xmlns="http://www.w3.org/2000/svg" xmlns:xlink="http://www.w3.org/1999/xlink" x="0px" y="0px"
	 viewBox="0 0 69 69" style="enable-background:new 0 0 69 69;" xml:space="preserve">
<style type="text/css">
	.st0{fill:none;stroke:#EE6825;stroke-width:0.87;stroke-miterlimit:10;}
	.st1{fill:#EE6825;}
	.st2{fill:#FFFFFF;}
</style>
<title>Asset 3</title>
<g id="Layer_2_1_">
	<g id="Layer_1-2">
		<circle class="st0" cx="34.5" cy="34.5" r="34.1"/>
		<circle class="st1" cx="34.5" cy="34.5" r="23"/>
		<path class="st2" d="M47.2,32.1c0.1-0.3,0.1-0.5,0.1-0.8c0-0.9-0.4-1.7-1.1-2.1c-2.3-1.6-2-1.2-2.9-3.8c-0.4-1.1-1.4-1.8-2.6-1.8
			c-2.8,0-2.3,0.2-4.7-1.5c-1-0.7-2.3-0.7-3.2,0c-2.3,1.6-1.8,1.5-4.6,1.5c-1.2,0-2.2,0.7-2.6,1.8c-0.9,2.6-0.6,2.2-2.9,3.8
			c-0.7,0.5-1.1,1.3-1.1,2.1c0,0.3,0,0.6,0.1,0.8c0.9,2.6,0.9,2.1,0,4.7c-0.1,0.3-0.1,0.5-0.1,0.8c0,0.8,0.4,1.6,1.1,2.1
			c2.3,1.6,2,1.2,2.9,3.8c0.4,1.1,1.4,1.8,2.6,1.8c2.8,0,2.4-0.2,4.6,1.5c1,0.7,2.3,0.7,3.2,0c2.3-1.6,1.8-1.5,4.7-1.5
			c1.2,0,2.2-0.7,2.6-1.8c0.9-2.6,0.6-2.2,2.9-3.8c1-0.6,1.4-1.8,1-2.9C46.3,34.2,46.3,34.7,47.2,32.1z M39.1,34.3
			c0.4,0,0.7,0.3,0.7,0.7c0,0.3-0.3,0.7-0.9,0.8c-0.4,0-0.5,0.3,0,0.4c0.3,0,0.6,0.3,0.6,0.6c0,0.3-0.3,0.7-1,0.8
			c-0.4,0.1-0.5,0.5,0,0.5s0.5,0.2,0.5,0.3c0,0.5-0.9,1.4-2.6,1.4c-2.7,0-3.7-1.6-7.2-1.6v-5.3c1.9-0.3,3.7-0.9,4.7-4.1
			C34,28,34.2,27,35.1,27c1.3,0,1.4,2.7,0.9,4.7c0.8,0.3,1.8,0.5,2.7,0.5c1,0,1.2,0.4,1.2,0.8c0,0.4-0.3,0.7-0.7,0.8
			C38.8,33.9,38.7,34.2,39.1,34.3z"/>
	</g>
</g>
</svg>
