<svg xmlns="http://www.w3.org/2000/svg" viewBox="0 0 68.98 68.98"><defs><style>.cls-1{fill:none;stroke:#394240;stroke-miterlimit:10;stroke-width:0.87px;}.cls-2{fill:#394240;}.cls-3{fill:#fff;}</style></defs><title>Asset 3</title><g id="Layer_2" data-name="Layer 2"><g id="Layer_1-2" data-name="Layer 1"><circle class="cls-1" cx="34.49" cy="34.49" r="34.06"/><circle class="cls-2" cx="34.49" cy="34.49" r="23"/><path class="cls-3" d="M47.22,32.14a2.5,2.5,0,0,0,.13-.81,2.57,2.57,0,0,0-1.13-2.13c-2.3-1.6-2-1.2-2.87-3.8a2.71,2.71,0,0,0-2.6-1.81c-2.85,0-2.35.16-4.65-1.46a2.84,2.84,0,0,0-3.22,0c-2.31,1.63-1.81,1.46-4.64,1.46a2.72,2.72,0,0,0-2.61,1.81c-.87,2.61-.57,2.21-2.87,3.8a2.6,2.6,0,0,0-1.13,2.13,2.27,2.27,0,0,0,.14.81c.89,2.61.88,2.11,0,4.7a2.32,2.32,0,0,0-.14.82,2.59,2.59,0,0,0,1.13,2.12c2.3,1.6,2,1.2,2.87,3.8a2.73,2.73,0,0,0,2.61,1.82c2.84,0,2.35-.17,4.64,1.45a2.84,2.84,0,0,0,3.22,0c2.3-1.62,1.8-1.46,4.65-1.45a2.72,2.72,0,0,0,2.6-1.82c.87-2.6.57-2.2,2.87-3.8a2.58,2.58,0,0,0,1-2.94C46.33,34.24,46.33,34.73,47.22,32.14Zm-8.11,2.13a.68.68,0,0,1,.67.65c0,.35-.29.71-.9.76-.37,0-.47.33,0,.44a.67.67,0,0,1,.59.63c0,.34-.3.7-1,.83-.41.07-.45.47,0,.51s.51.15.51.33c0,.5-.89,1.43-2.6,1.43-2.68,0-3.65-1.61-7.24-1.61V32.92c1.9-.29,3.74-.87,4.66-4.07C34,28,34.21,27,35.06,27c1.27,0,1.39,2.74.91,4.71a6.54,6.54,0,0,0,2.66.47c.95,0,1.22.44,1.22.8a.87.87,0,0,1-.72.81C38.8,33.88,38.65,34.21,39.11,34.27Z"/></g></g></svg>