<svg xmlns="http://www.w3.org/2000/svg" viewBox="0 0 159.89 62.21"><defs><style>.cls-1{fill:#45a9b7;}.cls-2{fill:none;stroke:#464648;stroke-miterlimit:10;stroke-width:0.87px;}.cls-3{fill:#454547;}.cls-4{font-size:40.45px;fill:#fff;font-family:FredokaOne-Regular, Fredoka One;}.cls-5{letter-spacing:-0.03em;}.cls-6{fill:#394240;}.cls-7{fill:#ee6825;}</style></defs><title>Asset 4</title><g id="Layer_2" data-name="Layer 2"><g id="Layer_1-2" data-name="Layer 1"><path class="cls-1" d="M39.81,46.52a7.33,7.33,0,0,1,1.1-6.72,9.51,9.51,0,0,1,7.6-4.11,7.62,7.62,0,0,1,1.85.22,3.14,3.14,0,0,1,2.14,3.48,2.26,2.26,0,0,1-2.22,2.12H50.1a89.67,89.67,0,0,0,12.46,5.41H67a4.21,4.21,0,0,0,4.21-4.21V12.8A4.21,4.21,0,0,0,67,8.59H4.21A4.22,4.22,0,0,0,0,12.8V42.7a4.22,4.22,0,0,0,4.21,4.21H40A2.76,2.76,0,0,1,39.81,46.52Z"/><circle class="cls-2" cx="156.46" cy="4.41" r="3"/><path class="cls-3" d="M157.64,5.45a.58.58,0,0,1,.07.22c0,.11-.09.2-.27.28a.6.6,0,0,1-.23.06.18.18,0,0,1-.13,0,.22.22,0,0,1-.08-.09s-.15-.31-.34-.78H156V5.6c0,.06,0,.11,0,.15a.76.76,0,0,1,0,.11c0,.08-.16.12-.34.12s-.32-.05-.36-.16a1.21,1.21,0,0,1,0-.23V3a.76.76,0,0,1,0-.11c0-.08.16-.12.34-.12h.94a1.16,1.16,0,0,1,.74.28,1,1,0,0,1,.29.36,1.13,1.13,0,0,1,.11.52,1.09,1.09,0,0,1-.32.8C157.41,4.92,157.51,5.14,157.64,5.45ZM156,4.34h.55a.38.38,0,0,0,.25-.1.32.32,0,0,0,.13-.28.32.32,0,0,0-.13-.29.39.39,0,0,0-.26-.1H156Z"/><text class="cls-4" transform="translate(2.78 35.05)"><tspan class="cls-5">y</tspan><tspan x="23.22" y="0">es</tspan></text><path class="cls-6" d="M102.68,16.1a11.1,11.1,0,0,1,15.49,0,10.44,10.44,0,0,1,3.36,8,10.51,10.51,0,0,1-1.74,6,10.87,10.87,0,0,1-4.23,3.84,11.4,11.4,0,0,1-5.16,1.24,11,11,0,0,1-5.17-1.32A11.34,11.34,0,0,1,101,29.91a10.17,10.17,0,0,1-1.72-5.8A10.43,10.43,0,0,1,102.68,16.1Zm5,10.9a4.32,4.32,0,0,0,2.63,1A4.44,4.44,0,0,0,113,27a3.53,3.53,0,0,0,1.34-3A3.49,3.49,0,0,0,113.11,21a4.31,4.31,0,0,0-2.71-1,4.26,4.26,0,0,0-2.71,1,3.62,3.62,0,0,0-1.25,3A3.5,3.5,0,0,0,107.73,27Z"/><path class="cls-6" d="M151.3,20.59l-2.63-.17V26a2.77,2.77,0,0,0,.34,1.57,1.48,1.48,0,0,0,1.3.49,13.1,13.1,0,0,1,1.45.06,2.7,2.7,0,0,1,1,.38c.64.35,1,1.26,1,2.71q0,2.55-1.14,3.12a3.63,3.63,0,0,1-1.07.34,11.35,11.35,0,0,1-1.35.06,8.64,8.64,0,0,1-6.27-2.22,8.08,8.08,0,0,1-2.31-6.11v-6c-1.45.08-2.7.13-3.72.13L134,20.38V31.22a5.15,5.15,0,0,1-.39,2.29,1.89,1.89,0,0,1-1.17,1,7.21,7.21,0,0,1-2,.24,6.12,6.12,0,0,1-2-.26,1.86,1.86,0,0,1-1.07-.85,3.15,3.15,0,0,1-.38-1.07,12.49,12.49,0,0,1-.06-1.42V20.42a11.44,11.44,0,0,1-1.68.13,1.84,1.84,0,0,1-1.46-.69,3.66,3.66,0,0,1-.58-2.35,10,10,0,0,1,.2-2.41,2.2,2.2,0,0,1,.56-1.07,2.5,2.5,0,0,1,1.62-.52l1.34.16V11.52a8.36,8.36,0,0,1,2.22-5.64,8.13,8.13,0,0,1,6.43-2.53,12,12,0,0,1,1.4.06,4,4,0,0,1,1.07.35c.73.38,1.09,1.43,1.09,3.15a4.32,4.32,0,0,1-.68,2.75,2.27,2.27,0,0,1-1.78.73,10.78,10.78,0,0,1-1.14,0c-1,0-1.49.34-1.49,1v2.23c1.48-.11,2.77-.16,3.88-.16l3.76.16V9.5a11.16,11.16,0,0,1,.06-1.37,2.86,2.86,0,0,1,.35-1q.56-1,3.15-1,2.75,0,3.24,1.5a6.42,6.42,0,0,1,.24,2.06v4c1.19-.11,2.08-.16,2.69-.16a11.5,11.5,0,0,1,1.37.06,3,3,0,0,1,1,.38c.72.35,1.09,1.39,1.09,3.12s-.37,2.73-1.09,3.11a4.18,4.18,0,0,1-1.08.35A11.78,11.78,0,0,1,151.3,20.59Z"/><path class="cls-6" d="M96.47,24.57a4.62,4.62,0,0,0-2-2,15.06,15.06,0,0,0-5.18-1.54c-1.84-.24-2.75-.77-2.75-1.58,0-.59.79-.89,2.38-.89a6.82,6.82,0,0,1,2.86.61,5.53,5.53,0,0,0,1.8.61c.62,0,1.22-.47,1.82-1.42A4.79,4.79,0,0,0,96.33,16c0-.64-.48-1.18-1.42-1.61A14.2,14.2,0,0,0,89,13q-8.79,0-8.78,6.39a8.15,8.15,0,0,0,.77,3.7,5.43,5.43,0,0,0,1.94,2.29,14.56,14.56,0,0,0,2.54,1.25,15.62,15.62,0,0,0,2.2.43.18.18,0,0,0,.17-.13,2.72,2.72,0,0,1,.59-1,.67.67,0,0,0,.17-.36,6.83,6.83,0,0,0,0-1.52.44.44,0,0,1,.19-.42c.4-.24,1.08.15,1.32,1.07a2.9,2.9,0,0,1,.05,1.33.1.1,0,0,0,.12.12,5.61,5.61,0,0,1,2.05-.08.84.84,0,0,1,.69.69,10.85,10.85,0,0,1,0,3.11.83.83,0,0,1-.75.68c-1.35.1-3.29.14-3.88-.39a.62.62,0,0,0-.45-.17c-1.17,0-2.22,0-3.15,0A5.37,5.37,0,0,1,81,28.2a6.45,6.45,0,0,0-1.47,3.11,1.68,1.68,0,0,0,.77,1.53,13.89,13.89,0,0,0,7.5,2.27,14.78,14.78,0,0,0,6.49-1.26,5.1,5.1,0,0,0,2.21-2.2,7.6,7.6,0,0,0,.79-3.58A7.11,7.11,0,0,0,96.47,24.57Z"/><path class="cls-7" d="M98.67,60.12a41.39,41.39,0,0,1-23.85,0c-.21-.06-.47,0-.47.14h0c0,.06.08.11.19.14A42,42,0,0,0,99,60.4c.11,0,.19-.08.19-.14h0C99.14,60.15,98.87,60.07,98.67,60.12Z"/><path class="cls-7" d="M41.71,45.83c-1.51-4.15,3.56-9.08,8.17-8,.78.19.8,2,.21,1.52-3.11-2.68-9.82,3.85-6.71,6.54C44,46.44,42,46.53,41.71,45.83Z"/><path class="cls-7" d="M123.19,38.09c4.52-1.37,9.91,3.27,8.68,7.49-.21.72-2.22.74-1.66.2,2.93-2.86-4.2-9-7.13-6.15C122.52,40.17,122.42,38.33,123.19,38.09Z"/><path class="cls-7" d="M128.48,40.7c-28,16.19-55.95,16.63-83.94,0a1.14,1.14,0,0,0-1.66,1h0a1.26,1.26,0,0,0,.68,1c29,19.86,57.66,19.64,85.92,0a1.25,1.25,0,0,0,.65-1v0A1.14,1.14,0,0,0,128.48,40.7Z"/></g></g></svg>